<svg id="visual" viewBox="0 0 900 450" width="100%" height="100%" xmlns="http://www.w3.org/2000/svg" xmlns:xlink="http://www.w3.org/1999/xlink" version="1.1"><rect width="900" height="450" fill="#6cb7f9"></rect><g><g transform="translate(847 254)"><path d="M0 -155.1L91.2 -125.5L147.5 -47.9L147.5 47.9L91.2 125.5L0 155.1L-91.2 125.5L-147.5 47.9L-147.5 -47.9L-91.2 -125.5Z" fill="#fefffe"></path></g><g transform="translate(142 333)"><path d="M0 -101L59.4 -81.7L96.1 -31.2L96.1 31.2L59.4 81.7L0 101L-59.4 81.7L-96.1 31.2L-96.1 -31.2L-59.4 -81.7Z" fill="#fefffe"></path></g><g transform="translate(494 92)"><path d="M0 -131L77 -106L124.6 -40.5L124.6 40.5L77 106L0 131L-77 106L-124.6 40.5L-124.6 -40.5L-77 -106Z" fill="#fefffe"></path></g><g transform="translate(535 437)"><path d="M0 -106L62.3 -85.8L100.8 -32.8L100.8 32.8L62.3 85.8L0 106L-62.3 85.8L-100.8 32.8L-100.8 -32.8L-62.3 -85.8Z" fill="#fefffe"></path></g><g transform="translate(16 45)"><path d="M0 -133L78.2 -107.6L126.5 -41.1L126.5 41.1L78.2 107.6L0 133L-78.2 107.6L-126.5 41.1L-126.5 -41.1L-78.2 -107.6Z" fill="#fefffe"></path></g></g></svg>